<?xml version="1.0" encoding="UTF-8" standalone="no"?>
<svg
   data-name="Layer 1"
   width="322"
   height="322"
   viewBox="0 0 322 321.99999"
   version="1.1"
   id="svg43"
   sodipodi:docname="undraw_synchronize_re_4irq.svg"
   inkscape:export-filename="/Users/akoutmos/Documents/opensource/litestream/guides/logo.png"
   inkscape:export-xdpi="233"
   inkscape:export-ydpi="233"
   inkscape:version="1.1.1 (c3084ef, 2021-09-22)"
   xmlns:inkscape="http://www.inkscape.org/namespaces/inkscape"
   xmlns:sodipodi="http://sodipodi.sourceforge.net/DTD/sodipodi-0.dtd"
   xmlns="http://www.w3.org/2000/svg"
   xmlns:svg="http://www.w3.org/2000/svg">
  <defs
     id="defs47" />
  <sodipodi:namedview
     id="namedview45"
     pagecolor="#505050"
     bordercolor="#eeeeee"
     borderopacity="1"
     inkscape:pageshadow="0"
     inkscape:pageopacity="0"
     inkscape:pagecheckerboard="0"
     showgrid="false"
     inkscape:zoom="1.5164818"
     inkscape:cx="59.347895"
     inkscape:cy="176.06542"
     inkscape:window-width="1512"
     inkscape:window-height="916"
     inkscape:window-x="-1"
     inkscape:window-y="38"
     inkscape:window-maximized="0"
     inkscape:current-layer="svg43" />
  <circle
     cx="161"
     cy="161"
     r="161"
     fill="#f2f2f2"
     id="circle9" />
  <path
     d="m 225.44394,243.69683 c 18.53078,-0.6176 36.44039,-8.97132 50.79177,-22.63851 a 81.549382,95.785752 0 0 0 28.6933,-54.49491 87.192227,102.41369 0 0 0 -6.90643,-64.78286 80.738749,94.833603 0 0 0 -39.55284,-45.059602 86.332416,101.40378 0 0 0 -54.56104,-6.746675 c -2.29051,0.621683 -4.55228,1.372845 -6.78569,2.233846 -2.04074,0.786737 -1.16696,4.590696 0.89126,3.797231 17.13897,-6.607212 35.89093,-5.817769 52.82122,1.30375 a 78.160652,91.805439 0 0 1 40.91918,39.081384 83.873018,98.515034 0 0 1 10.9937,61.627906 77.536643,91.072495 0 0 1 -23.66205,54.8565 c -12.75768,14.31071 -29.52289,24.02707 -47.11132,26.35394 -2.16996,0.28708 -4.34846,0.45736 -6.53105,0.5301 -2.15287,0.0717 -2.16173,4.00994 0,3.9379 z"
     fill="#3f3d56"
     id="path33"
     style="stroke-width:0.971706" />
  <path
     d="m 186.28665,22.870767 -33.58026,28.55147 c -2.19525,1.8665 -4.79986,3.79293 -5.3929,6.797533 a 7.55479,7.55479 0 0 0 2.62247,6.84572 c 2.18018,2.07325 4.95563,3.39114 7.56418,4.82544 l 9.75961,5.366284 21.688,11.92507 c 2.11,1.16016 3.9988,-2.06777 1.88729,-3.22878 -11.75274,-6.4622 -23.6801,-12.684214 -35.28365,-19.409804 -1.75678,-1.01825 -4.51921,-2.66353 -4.6241,-4.97689 -0.11236,-2.478343 3.269,-4.519153 4.89613,-5.902623 l 15.60773,-13.2704 17.49958,-14.87895 c 1.836,-1.561 -0.81991,-4.19508 -2.64408,-2.64409 z"
     fill="#3f3d56"
     id="path35" />
  <path
     d="M 108.69878,45.929206 C 83.543332,50.210946 60.501632,63.350046 43.179992,81.970204 25.722492,100.73644 14.650703,125.07421 12.998243,150.72537 a 120.01711,120.01711 0 0 0 20.024099,73.84419 111.13416,111.13416 0 0 0 61.28921,44.67691 c 24.604628,7.17929 51.478698,6.563 75.469268,-2.66813 3.02,-1.16206 5.97968,-2.46883 8.88269,-3.8976 2.65259,-1.30552 0.83858,-5.55146 -1.8367,-4.23477 -22.27741,10.96426 -47.9648,13.6558 -72.20647,8.64933 -24.321488,-5.023 -46.576298,-18.07313 -62.172248,-37.477 A 115.44839,115.44839 0 0 1 17.369933,160.22141 106.72648,106.72648 0 0 1 40.635112,92.014594 c 15.04414,-19.060258 36.30284,-33.560428 59.893998,-39.644278 2.91054,-0.75059 5.85185,-1.36731 8.81469,-1.87162 2.92252,-0.49744 2.28953,-5.06895 -0.645,-4.56946 z"
     fill="#3f3d56"
     id="path37" />
  <path
     d="m 166.03034,303.4007 36.11052,-40.68252 c 2.36066,-2.65955 5.21123,-5.46294 5.41766,-9.23688 0.18038,-3.29771 -1.80124,-6.06811 -4.38552,-7.91319 -3.02183,-2.15747 -6.64079,-3.2892 -10.07586,-4.592 l -12.852,-4.87419 -28.56,-10.83154 c -2.77852,-1.05377 -4.5299,3.2166 -1.74935,4.27114 15.47665,5.86961 31.12525,11.41559 46.465,17.63281 2.32244,0.94129 5.982,2.47534 6.50917,5.28419 0.56481,3.00918 -3.2152,6.08632 -4.965,8.05761 l -16.78376,18.90878 -18.81815,21.20075 c -1.97433,2.2243 1.72556,4.985 3.68717,2.775 z"
     fill="#3f3d56"
     id="path39" />
</svg>
